HIERARCHY
ROOT hip
{
  OFFSET 0 0 0
  CHANNELS 6 Xposition Yposition Zposition Zrotation Yrotation Xrotation
  JOINT abdomen
  {
    OFFSET 0 20.6881 -0.73152
    CHANNELS 3 Zrotation Xrotation Yrotation
    JOINT chest
    {
      OFFSET 0 11.7043 -0.48768
      CHANNELS 3 Zrotation Xrotation Yrotation
      JOINT neck
      {
        OFFSET 0 22.1894 -2.19456
        CHANNELS 3 Zrotation Xrotation Yrotation
        JOINT head
        {
          OFFSET -0.24384 7.07133 1.2192
          CHANNELS 3 Zrotation Xrotation Yrotation
          JOINT leftEye
          {
            OFFSET 4.14528 8.04674 8.04672
            CHANNELS 3 Zrotation Xrotation Yrotation
            End Site
            {
              OFFSET 1 0 0
            }
          }
          JOINT rightEye
          {
            OFFSET -3.6576 8.04674 8.04672
            CHANNELS 3 Zrotation Xrotation Yrotation
            End Site
            {
              OFFSET 1 0 0
            }
          }
        }
      }
      JOINT rCollar
      {
        OFFSET -2.68224 19.2634 -4.8768
        CHANNELS 3 Zrotation Xrotation Yrotation
        JOINT rShldr
        {
          OFFSET -8.77824 -1.95073 1.46304
          CHANNELS 3 Zrotation Xrotation Yrotation
          JOINT rForeArm
          {
            OFFSET -28.1742 -1.7115 0.48768
            CHANNELS 3 Zrotation Xrotation Yrotation
            JOINT rHand
            {
              OFFSET -22.5879 0.773209 7.07136
              CHANNELS 3 Zrotation Xrotation Yrotation
              JOINT rThumb1
              {
                OFFSET -1.2192 -0.487915 3.41376
                CHANNELS 3 Zrotation Xrotation Yrotation
                JOINT rThumb2
                {
                  OFFSET -3.37035 -0.52449 3.41376
                  CHANNELS 3 Zrotation Xrotation Yrotation
                  End Site
                  {
                    OFFSET -1.78271 -1.18214 1.43049
                  }
                }
              }
              JOINT rIndex1
              {
                OFFSET -7.75947 0.938293 5.60832
                CHANNELS 3 Zrotation Xrotation Yrotation
                JOINT rIndex2
                {
                  OFFSET -2.54057 -0.884171 1.56538
                  CHANNELS 3 Zrotation Xrotation Yrotation
                  End Site
                  {
                    OFFSET -1.62519 -0.234802 1.16502
                  }
                }
              }
              JOINT rMid1
              {
                OFFSET -8.24714 1.18213 3.41376
                CHANNELS 3 Zrotation Xrotation Yrotation
                JOINT rMid2
                {
                  OFFSET -3.10165 -0.590103 1.0647
                  CHANNELS 3 Zrotation Xrotation Yrotation
                  End Site
                  {
                    OFFSET -2.48547 -0.328903 0.83742
                  }
                }
              }
              JOINT rRing1
              {
                OFFSET -8.82822 0.546677 1.51678
                CHANNELS 3 Zrotation Xrotation Yrotation
                JOINT rRing2
                {
                  OFFSET -2.60934 -0.819778 -0.0198488
                  CHANNELS 3 Zrotation Xrotation Yrotation
                  End Site
                  {
                    OFFSET -2.33842 -0.294052 0.168128
                  }
                }
              }
              JOINT rPinky1
              {
                OFFSET -8.27202 -0.0477905 -0.4584
                CHANNELS 3 Zrotation Xrotation Yrotation
                JOINT rPinky2
                {
                  OFFSET -1.82734 -0.647385 -0.700984
                  CHANNELS 3 Zrotation Xrotation Yrotation
                  End Site
                  {
                    OFFSET -1.69225 -0.51767 -0.607171
                  }
                }
              }
            }
          }
        }
      }
      JOINT lCollar
      {
        OFFSET 2.68224 19.2634 -4.8768
        CHANNELS 3 Zrotation Xrotation Yrotation
        JOINT lShldr
        {
          OFFSET 8.77824 -1.95073 1.46304
          CHANNELS 3 Zrotation Xrotation Yrotation
          JOINT lForeArm
          {
            OFFSET 28.1742 -1.7115 0.48768
            CHANNELS 3 Zrotation Xrotation Yrotation
            JOINT lHand
            {
              OFFSET 22.5879 0.773209 7.07136
              CHANNELS 3 Zrotation Xrotation Yrotation
              JOINT lThumb1
              {
                OFFSET 1.2192 -0.487915 3.41376
                CHANNELS 3 Zrotation Xrotation Yrotation
                JOINT lThumb2
                {
                  OFFSET 3.37035 -0.52449 3.41376
                  CHANNELS 3 Zrotation Xrotation Yrotation
                  End Site
                  {
                    OFFSET 1.78271 -1.18214 1.43049
                  }
                }
              }
              JOINT lIndex1
              {
                OFFSET 7.75947 0.938293 5.60832
                CHANNELS 3 Zrotation Xrotation Yrotation
                JOINT lIndex2
                {
                  OFFSET 2.54057 -0.884171 1.56538
                  CHANNELS 3 Zrotation Xrotation Yrotation
                  End Site
                  {
                    OFFSET 1.62519 -0.234802 1.16502
                  }
                }
              }
              JOINT lMid1
              {
                OFFSET 8.24714 1.18213 3.41376
                CHANNELS 3 Zrotation Xrotation Yrotation
                JOINT lMid2
                {
                  OFFSET 3.10165 -0.590103 1.0647
                  CHANNELS 3 Zrotation Xrotation Yrotation
                  End Site
                  {
                    OFFSET 2.48547 -0.328903 0.83742
                  }
                }
              }
              JOINT lRing1
              {
                OFFSET 8.82822 0.546677 1.51678
                CHANNELS 3 Zrotation Xrotation Yrotation
                JOINT lRing2
                {
                  OFFSET 2.60934 -0.819778 -0.0198488
                  CHANNELS 3 Zrotation Xrotation Yrotation
                  End Site
                  {
                    OFFSET 2.33842 -0.294052 0.168128
                  }
                }
              }
              JOINT lPinky1
              {
                OFFSET 8.27202 -0.0477905 -0.4584
                CHANNELS 3 Zrotation Xrotation Yrotation
                JOINT lPinky2
                {
                  OFFSET 1.82734 -0.647385 -0.700984
                  CHANNELS 3 Zrotation Xrotation Yrotation
                  End Site
                  {
                    OFFSET 1.69225 -0.51767 -0.607171
                  }
                }
              }
            }
          }
        }
      }
    }
  }
  JOINT rButtock
  {
    OFFSET -8.77824 4.35084 1.2192
    CHANNELS 3 Zrotation Xrotation Yrotation
    JOINT rThigh
    {
      OFFSET 0 -1.70687 -2.19456
      CHANNELS 3 Zrotation Xrotation Yrotation
      JOINT rShin
      {
        OFFSET 0 -36.8199 0.73152
        CHANNELS 3 Zrotation Xrotation Yrotation
        JOINT rFoot
        {
          OFFSET 0.73152 -45.1104 -5.12064
          CHANNELS 3 Zrotation Xrotation Yrotation
          End Site
          {
            OFFSET -1.1221 -3.69964 12.103
          }
        }
      }
    }
  }
  JOINT lButtock
  {
    OFFSET 8.77824 4.35084 1.2192
    CHANNELS 3 Zrotation Xrotation Yrotation
    JOINT lThigh
    {
      OFFSET 0 -1.70687 -2.19456
      CHANNELS 3 Zrotation Xrotation Yrotation
      JOINT lShin
      {
        OFFSET 0 -36.8199 0.73152
        CHANNELS 3 Zrotation Xrotation Yrotation
        JOINT lFoot
        {
          OFFSET -0.73152 -45.1104 -5.12064
          CHANNELS 3 Zrotation Xrotation Yrotation
          End Site
          {
            OFFSET 1.1221 -3.69964 12.103
          }
        }
      }
    }
  }
}
MOTION
Frames:	4
Frame Time:	0.00833333
-34.7137 68.5858 -16.8271 175.509 -48.1788 -167.757 -9.88712 6.96124 15.0096 1.44691 -8.01677 4.0983706 -8.058911 21.693802 -17.981604 14.2458 -31.5575 -32.4069 0.0 0.0 0.0 0.0 0.0 0.0 -3.89546e-13 2.63841e-12 -6.03082e-13 16.611902 -26.1852 35.6232 -8.5337 -3.29963 15.079902 -1.8628597 35.6571 5.7871 -3.76367e-09 -2.05848e-08 -3.37306e-09 -6.59338e-09 -3.55628e-08 -5.70431e-09 -3.76366e-09 -2.05848e-08 -3.37307e-09 7.730911 5.47488 0.41731405 -3.76366e-09 -2.05848e-08 -3.37306e-09 2.90554 0.965183 0.102902 -3.76366e-09 -2.05848e-08 -3.37306e-09 10.2786 0.73180103 0.025912303 -3.76368e-09 -2.05848e-08 -3.3730498e-09 2.2216702 -0.733487 -0.20892 -3.89725e-13 2.63842e-12 -6.03294e-13 -106.38901 48.324406 43.725407 28.1287 -39.671402 -83.335205 5.695881 -54.0027 11.153499 -1.4632701e-09 1.2351801e-09 -9.92129e-10 -2.46983e-09 2.1786302e-09 -1.7788501e-09 -1.4632799e-09 1.2351801e-09 -9.92125e-10 -7.730911 5.47488 -0.41731405 -1.4632701e-09 1.23517e-09 -9.9213e-10 -2.90554 0.965183 -0.102902 -1.4632799e-09 1.2351801e-09 -9.921329e-10 -10.2786 0.73180103 -0.025912303 -1.4632701e-09 1.2351801e-09 -9.92141e-10 -2.2216702 -0.733487 0.20892 -2.03217e-16 8e-44 -3.88251e-19 4.3922195 -6.7922196 -8.407009 -0.42938688 50.991 1.9411498 -21.6374 -18.8035 -40.990204 2.03217e-16 8e-44 3.88251e-19 -23.697899 -55.3071 -28.7876 2.4710205 71.5614 -2.4370596 -5.2188 -24.155102 -10.470101
-34.6383 68.771706 -17.4219 175.523 -47.122803 -167.83 -11.158001 7.62823 15.456302 1.6359501 -8.102601 4.1787105 -8.03685 21.469303 -17.8397 14.884399 -31.709097 -31.9632 0.0 0.0 0.0 0.0 0.0 0.0 -4.14604e-13 2.3482399e-12 -3.4197599e-13 17.4044 -26.030201 36.188503 -8.480572 -3.2705998 14.982302 -1.8118801 35.248 5.69973 -2.32802e-09 -1.24879005e-08 -1.9811999e-09 -4.0752703e-09 -2.15696e-08 -3.3467502e-09 -2.32802e-09 -1.24879005e-08 -1.9811999e-09 7.730911 5.47488 0.41731405 -2.32802e-09 -1.24879005e-08 -1.9811999e-09 2.90554 0.965183 0.102902 -2.32801e-09 -1.24879005e-08 -1.9811999e-09 10.2786 0.73180103 0.025912303 -2.32803e-09 -1.24879005e-08 -1.9811899e-09 2.2216702 -0.733487 -0.20892 -4.14735e-13 2.3482399e-12 -3.42147e-13 -106.698006 49.0592 43.578106 28.128294 -39.6743 -83.34009 5.3697 -52.993896 10.7469 -2.14522e-10 5.3070603e-10 -4.7357096e-10 -3.44985e-10 8.9150004e-10 -8.2819296e-10 -2.14531e-10 5.3070703e-10 -4.7356996e-10 -7.730911 5.47488 -0.41731405 -2.14519e-10 5.3069604e-10 -4.73572e-10 -2.90554 0.965183 -0.102902 -2.1452601e-10 5.3070603e-10 -4.73573e-10 -10.2786 0.73180103 -0.025912303 -2.14518e-10 5.30708e-10 -4.7357895e-10 -2.2216702 -0.733487 0.20892 -2.03217e-16 8e-44 -3.88251e-19 3.10559 -10.6977005 -8.54917 -0.8174209 57.841805 2.0345304 -15.976801 -14.316002 -36.106804 2.03217e-16 8e-44 3.88251e-19 -22.693302 -54.4386 -28.0261 2.3865988 70.93919 -2.2646897 -4.7757196 -24.833204 -9.335901
-34.4629 69.078705 -18.0081 175.839 -45.654503 -168.124 -12.543599 8.35401 15.966 1.8597 -8.08501 4.26394 -7.9048805 21.2092 -17.632 15.543601 -32.1272 -31.362198 0.0 0.0 0.0 0.0 0.0 0.0 3.4893702e-14 3.77178e-13 -6.3155e-13 18.0788 -25.5277 37.161804 -8.475748 -3.2659 14.972697 -1.74192 34.6674 5.5776596 1.49354e-09 3.71145e-09 -7.82898e-10 2.54768e-09 6.2351497e-09 -1.38569e-09 1.49354e-09 3.71144e-09 -7.8289497e-10 7.730911 5.47488 0.41731405 1.49354e-09 3.71144e-09 -7.8289397e-10 2.90554 0.965183 0.102902 1.4935501e-09 3.71144e-09 -7.82893e-10 10.2786 0.73180103 0.025912303 1.4935301e-09 3.71145e-09 -7.8288703e-10 2.2216702 -0.733487 -0.20892 3.49318e-14 3.77167e-13 -6.31654e-13 -107.028 49.932503 43.418102 28.140902 -39.592903 -83.19511 5.1587505 -52.3126 10.481799 1.81795e-09 -9.46008e-11 9.8956e-11 3.13137e-09 -2.3116199e-10 2.33216e-10 1.81795e-09 -9.46025e-11 9.89644e-11 -7.730911 5.47488 -0.41731405 1.8179599e-09 -9.46029e-11 9.89634e-11 -2.90554 0.965183 -0.102902 1.81795e-09 -9.4600695e-11 9.89632e-11 -10.2786 0.73180103 -0.025912303 1.8179599e-09 -9.45958e-11 9.89617e-11 -2.2216702 -0.733487 0.20892 -2.03217e-16 8e-44 -3.88251e-19 1.1992499 -16.4686 -8.97818 -1.61258 67.0354 2.4453797 -9.635919 -8.505309 -28.622698 2.03217e-16 8e-44 3.88251e-19 -21.6229 -53.6043 -27.300001 2.3013597 70.231 -2.0688903 -3.78703 -25.2423 -7.2462597
-34.3285 69.4434 -18.6058 175.951 -43.6992 -168.556 -14.226699 9.525069 16.5196 2.2072 -8.194479 4.3424296 -7.7988095 21.020296 -17.306698 16.1918 -32.944897 -30.504198 0.0 0.0 0.0 0.0 0.0 0.0 1.7956899e-13 -3.6132601e-13 -6.02139e-13 18.823902 -25.233105 38.751102 -8.414819 -3.2321198 14.860199 -1.7275401 34.5424 5.55185 2.09105e-09 7.8295e-09 2.0594701e-10 3.6072698e-09 1.3396301e-08 3.0317598e-10 2.09105e-09 7.82949e-09 2.05948e-10 7.730911 5.47488 0.41731405 2.09105e-09 7.82949e-09 2.05948e-10 2.90554 0.965183 0.102902 2.09106e-09 7.82949e-09 2.05951e-10 10.2786 0.73180103 0.025912303 2.09104e-09 7.82949e-09 2.05956e-10 2.2216702 -0.733487 -0.20892 1.79638e-13 -3.61337e-13 -6.0227203e-13 -107.26601 50.9638 43.256092 28.153297 -39.5109 -83.05 5.1402087 -52.250397 10.458299 1.7173399e-09 6.65704e-12 6.70408e-11 2.95849e-09 -2.99127e-11 1.73887e-10 1.7173399e-09 6.65902e-12 6.70588e-11 -7.730911 5.47488 -0.41731405 1.71735e-09 6.6572e-12 6.70492e-11 -2.90554 0.965183 -0.102902 1.7173399e-09 6.6652e-12 6.70494e-11 -10.2786 0.73180103 -0.025912303 1.71735e-09 6.67026e-12 6.70494e-11 -2.2216702 -0.733487 0.20892 -2.03217e-16 8e-44 -3.88251e-19 -1.3367696 -22.6798 -10.3522005 -3.19644 75.947395 3.8214 -6.8869104 -6.06663 -22.8259 2.03217e-16 8e-44 3.88251e-19 -20.418299 -52.174896 -26.224102 2.14565 69.130005 -1.8613398 -2.4713297 -25.351997 -4.68568
